<svg xmlns="http://www.w3.org/2000/svg"  viewBox="0 0 80 80" width="45px" height="45px"><path fill="#c74343" d="M40,77.5C19.324,77.5,2.5,60.676,2.5,40S19.324,2.5,40,2.5S77.5,19.324,77.5,40S60.676,77.5,40,77.5z"/><path fill="#ab3434" d="M40,3c20.402,0,37,16.598,37,37S60.402,77,40,77S3,60.402,3,40S19.598,3,40,3 M40,2C19,2,2,19,2,40 s17,38,38,38s38-17,38-38S61,2,40,2L40,2z"/><path fill="#fefdfd" d="M64,16L47.3,29.46c-1.94-1.1-4.06-1.86-6.28-2.22L52.5,12L64,16z"/><path fill="#fefcfc" d="M48.9 12.02l-9.36 15.04C39.02 27.02 38.52 27 38 27c-1.7 0-3.34.22-4.9.64L38 12 48.9 12.02zM34.24 13.24l-2.68 14.88c-1.98.7-3.8 1.74-5.4 3.02L24.76 17C24.76 17 33.92 13.36 34.24 13.24zM24.88 32.26c-1.3 1.24-2.42 2.66-3.34 4.22L16 26l6-6L24.88 32.26zM20.84 37.8c-.64 1.38-1.14 2.84-1.46 4.38L12 36.28l2.98-6.68L20.84 37.8z"/><path fill="#fefbfb" d="M19.14,48.32L12,45.42l0.5-5.94l6.58,4.74C19.02,44.8,19,45.4,19,46 C19,46.78,19.04,47.56,19.14,48.32z"/><path fill="#fefcfc" d="M20.26,52.78l-5.88,0.14L12.76,48l6.62,1.72C19.58,50.76,19.88,51.78,20.26,52.78z"/><path fill="#fdfafa" d="M22.28,56.64c-1.06,0.46-2.7,1.14-3.8,1.58c-1.14-1.4-2.08-2.54-2.84-3.46 c1.36-0.18,3.46-0.48,5.14-0.72C21.2,54.94,21.7,55.82,22.28,56.64z"/><path fill="#fefdfd" d="M35.091,50.816l-1.852-4.441l19.143-12.761C48.761,29.412,43.528,27,38,27c-10.477,0-19,8.523-19,19 c0,5.665,2.502,10.968,6.86,14.596c0.433-0.868,0.773-1.563,0.955-1.962C28.291,57.551,30.626,57,33.76,57 c1.305,0,2.893,0.188,4.727,0.557l1.252,0.314l-3.45-7.36L35.091,50.816z"/><path fill="#ffab91" d="M38,26c-11.046,0-20,8.954-20,20c0,6.266,2.885,11.856,7.396,15.523 c0.355-0.706,0.668-1.334,0.922-1.852C22.331,56.276,20,51.347,20,46c0-9.925,8.075-18,18-18c5.232,0,10.154,2.275,13.553,6.167 l1.673-1.115C49.557,28.742,44.103,26,38,26z"/><path fill="#ffab91" d="M24,45c0-7.732,6.268-14,14-14l-1-1c-8.358,0.518-15,7.513-15,16c0,3.707,1.273,7.179,3.505,9.967 c0.732-0.47,1.6-0.831,2.534-1.136C25.543,52.303,24,48.833,24,45z"/><path fill="#ff6868" d="M39.18,56.68C38.34,56.5,35.96,56,33.76,56c-2.991,0-4.996,0.493-6.355,1.133 c-0.819,0.386-1.469,1.041-1.866,1.855c-1.028,2.108-3.357,6.651-3.52,6.992C22.24,65.88,26.12,64,30,64c6,0,10,2,10,2 s1.26-2.64,1.82-3.68L39.18,56.68z"/><path fill="#ffab91" d="M31.75,58C33.5,58,35,58.5,36,59.25c-2.75-0.25-4.133-0.031-5.5,0.25 c-2.881,0.592-3.845,1.75-3.845,1.75C26.707,61.147,27.75,59,27.75,59S29.25,58,31.75,58z"/><path fill="#fefdfd" d="M45.56,54.9c-1.56-0.78-3.02-1.92-4.32-3.4c-1.4-1.58-3.34-2.5-5.36-2.5h-0.3l10.2,21.76 c1.68-0.62,5.56-2.26,7.12-4.84C51.76,63.02,48.66,56.44,45.56,54.9z"/><path fill="#ffab91" d="M37.221,50.159c1.232,0.295,2.381,0.99,3.276,2.005c1.38,1.566,2.931,2.786,4.609,3.625 c2.429,1.215,5.217,6.446,6.671,10.015c-1.241,1.661-3.687,2.952-5.489,3.697L37.221,50.159 M35.884,48H34l11.25,24 c0,0,6.75-2,8.75-6c0,0-3.658-9.829-8-12c-1.692-0.846-3.027-2.05-4.003-3.158C40.438,49.073,38.242,48,35.884,48L35.884,48z"/><path fill="#fff" d="M33.239,46.375l1.852,4.441l21.808-5.566l-1.69-13.52L33.239,46.375z"/><path fill="#ffab91" d="M54.417,33.459l1.38,11.039l-20.116,5.136l-1.201-2.884L54.417,33.459 M56,30L32,46l2.5,6L58,46 L56,30L56,30z"/></svg>